<svg viewBox="33 25 134 150" xmlns="http://www.w3.org/2000/svg"><path fill="#FF9933" d="M164.6 25H50.9c-1.4 0-2.5 1.1-2.5 2.5v34.8h4.9V29.9h108.6V145h-22.6c-1.4 0-2.5 1.1-2.5 2.5v22.6H53.3v-37.3h-4.9v39.7c0 1.4.9 2.5 2.4 2.5h88.6s1.3-.3 1.8-.8l25.2-25c.2-.2.2-.5.3-.7v-.2c.4-.2.4-.5 0-.7v-120c.4-1.7-2.1-2.6-2.1-2.6zm-14.8 133.1l-8.3 8.3v-16.5h16.6l-8.3 8.2zM91.3 115H84V67.2c0-1.4-1.1-2.5-2.5-2.5H66.3c-1.4 0-2.5 1.1-2.5 2.5v15.3H50.9c-1.4 0-2.5 1.1-2.5 2.5v9.6H35.5c-1.4 0-2.5 1.1-2.5 2.5v20.1c0 1.4 1.1 2.5 2.5 2.5h55.8V115zm-42.9 0H37.9V99.6h10.5V115zm15.4 0H53.3V87.4h10.5V115zm15.4 0H68.7V70.4h9.7l.8 44.5v.1zm72.9-30.1V42.1c0-1.5-1-2.5-2.5-2.5H96.3c-1.4 0-2.5 1.1-2.5 2.5v42.8c0 1.4 1.1 2.5 2.5 2.5h53.3c1.5 0 2.5-1 2.5-2.5zm-40.5-2.3h-13V59.9h13v22.7zm0-27.6h-13v-9.7h13V55zm34.8 27.6h-30V59.9h30v22.7zm0-27.6h-30v-9.7h30V55zm3.3 39.7H97v4.9h52.7v-4.9zm0 13H97v4.9h52.7v-4.9zm0 12.2H97v4.9h52.7v-4.9zM61.4 40.4v4.9h15.4v-4.9H61.4zm0 17H84v-4.9H61.4v4.9zm17.8 75.4H61.4v4.9h17.8v-4.9zm7.3 4.1h17.8V132H86.5v4.9zm42.9-4.1h-17.8v4.9h17.8v-4.9zM79.2 145H61.4v4.9h17.8V145zm25.1 0H86.5v4.9h17.8V145zm25.1 0h-17.8v4.9h17.8V145zm-68 17h17.8v-4.9H61.4v4.9zm25.1 0h17.8v-4.9H86.5v4.9zm25.1 0h17.8v-4.9h-17.8v4.9z"/></svg>
