<svg viewBox="31.5 33 137 134" xmlns="http://www.w3.org/2000/svg"><style>path{fill:#ff9933}</style><path d="M162.544 101.489V167h-5.957v-65.511h5.957z"></path><path d="M43.414 101.489v62.533h-5.957v-62.533h5.957z"/><path d="M88.087 101.489v62.533H82.13v-62.533h5.957z"/><path d="M168.5 98.511v5.956h-137v-5.956h137z"/><path d="M85.109 128.289H40.435a2.977 2.977 0 0 1-2.978-2.978v-23.822a2.978 2.978 0 0 1 2.978-2.978h44.674a2.977 2.977 0 0 1 2.978 2.978v23.822a2.978 2.978 0 0 1-2.978 2.978zm-41.696-5.956H82.13v-17.867H43.413v17.867z"/><path d="M85.109 152.111H40.435a2.977 2.977 0 0 1-2.978-2.978v-23.822a2.978 2.978 0 0 1 2.978-2.978h44.674a2.977 2.977 0 0 1 2.978 2.978v23.822a2.978 2.978 0 0 1-2.978 2.978zm-41.696-5.955H82.13v-17.867H43.413v17.867z"/><path d="M120.848 89.578H46.391a2.977 2.977 0 0 1-2.978-2.978V35.978A2.978 2.978 0 0 1 46.391 33h74.457a2.977 2.977 0 0 1 2.978 2.978V86.6a2.977 2.977 0 0 1-2.978 2.978zM49.37 83.622h68.5V38.956h-68.5v44.666z"/><path d="M76.174 86.6v8.933h-5.957V86.6h5.957z"/><path d="M97.022 86.6v8.933h-5.957V86.6h5.957z"/><path d="M159.565 95.533h-5.957v-26.8h-17.87v26.8h-5.957V65.756a2.978 2.978 0 0 1 2.978-2.978h23.826a2.977 2.977 0 0 1 2.978 2.978v29.777z"/><path d="M162.543 89.578h-5.957v-5.956h5.957v-8.933h-5.957v-5.956h5.957a5.963 5.963 0 0 1 5.957 5.956v8.933a5.963 5.963 0 0 1-5.957 5.956z"/><path d="M147.345 58.14l-5.343-2.635 1.472-2.984a3.838 3.838 0 0 0 .022-3.367 9.768 9.768 0 0 1 .023-8.494l1.451-3.001 5.363 2.594-1.451 3.001a3.833 3.833 0 0 0-.009 3.338 9.765 9.765 0 0 1-.057 8.564l-1.471 2.984z"/><path d="M67.239 107.444v5.956h-8.935v-5.956h8.935z"/><path d="M67.239 131.267v5.956h-8.935v-5.956h8.935z"/></svg>
