<svg viewBox="28 32.5 144 135" xmlns="http://www.w3.org/2000/svg"><style>path{fill: #024E50;}</style><path	d="M169 143.5H88c-1.658 0-3-1.342-3-3v-39h6v36h75v-99H91v30h-6v-33c0-1.658 1.342-3 3-3h81c1.658 0 3 1.342 3 3v105c0 1.658-1.342 3-3 3z"/><path	d="M43 137.5c-8.13 0-15-6.87-15-15v-27c0-13.934 9.085-21 27-21h60c1.658 0 3 1.342 3 3 0 8.514-7.392 18-18 18H79v39h-6v-42c0-1.658 1.342-3 3-3h24c6.026 0 10.166-4.591 11.52-9H55c-18.612 0-21 8.016-21 15v27c0 4.793 4.207 9 9 9v6z"/><path d="M79 95.5v72h-6v-72h6z"/><path d="M64 128.5v39h-6v-39h6z"/><path d="M49 95.5v72h-6v-72h6z"/><path	d="M62.5 71.5c-9.407 0-16.5-6.448-16.5-15v-9c0-8.552 7.093-15 16.5-15S79 38.948 79 47.5v9c0 8.552-7.093 15-16.5 15zm0-33c-6.085 0-10.5 3.785-10.5 9v9c0 5.215 4.415 9 10.5 9s10.5-3.785 10.5-9v-9c0-5.215-4.415-9-10.5-9z"/><path d="M133 137.5v27h-6v-27h6z"/><path d="M149.093 163.835L130 144.742l-19.093 19.093-4.242-4.242 21.214-21.214a2.998 2.998 0 0 1 4.242 0l21.214 21.214-4.242 4.242z"/></svg>
